<svg width="197" height="64" viewBox="0 0 197 64" fill="none" xmlns="http://www.w3.org/2000/svg">
<rect width="197" height="64" rx="32" fill="#D2F4FF"/>
<path d="M48.2109 20.3008H51.4277L42.1641 46H39.2109L30 20.3008H33.1641L39.0703 36.9297C39.75 38.8398 40.2891 40.6973 40.6875 42.502C41.1094 40.6035 41.6602 38.7109 42.3398 36.8242L48.2109 20.3008ZM57.457 46H54.5391V26.7344H57.457V46ZM54.293 21.5137C54.293 20.8457 54.457 20.3594 54.7852 20.0547C55.1133 19.7383 55.5234 19.5801 56.0156 19.5801C56.4844 19.5801 56.8887 19.7383 57.2285 20.0547C57.5684 20.3711 57.7383 20.8574 57.7383 21.5137C57.7383 22.1699 57.5684 22.6621 57.2285 22.9902C56.8887 23.3066 56.4844 23.4648 56.0156 23.4648C55.5234 23.4648 55.1133 23.3066 54.7852 22.9902C54.457 22.6621 54.293 22.1699 54.293 21.5137ZM76.0723 40.7441C76.0723 42.5371 75.4043 43.9199 74.0684 44.8926C72.7324 45.8652 70.8574 46.3516 68.4434 46.3516C65.8887 46.3516 63.8965 45.9473 62.4668 45.1387V42.4316C63.3926 42.9004 64.3828 43.2695 65.4375 43.5391C66.5039 43.8086 67.5293 43.9434 68.5137 43.9434C70.0371 43.9434 71.209 43.7031 72.0293 43.2227C72.8496 42.7305 73.2598 41.9863 73.2598 40.9902C73.2598 40.2402 72.9316 39.6016 72.2754 39.0742C71.6309 38.5352 70.3652 37.9023 68.4785 37.1758C66.6855 36.5078 65.4082 35.9277 64.6465 35.4355C63.8965 34.9316 63.334 34.3633 62.959 33.7305C62.5957 33.0977 62.4141 32.3418 62.4141 31.4629C62.4141 29.8926 63.0527 28.6562 64.3301 27.7539C65.6074 26.8398 67.3594 26.3828 69.5859 26.3828C71.6602 26.3828 73.6875 26.8047 75.668 27.6484L74.6309 30.0215C72.6973 29.2246 70.9453 28.8262 69.375 28.8262C67.9922 28.8262 66.9492 29.043 66.2461 29.4766C65.543 29.9102 65.1914 30.5078 65.1914 31.2695C65.1914 31.7852 65.3203 32.2246 65.5781 32.5879C65.8477 32.9512 66.2754 33.2969 66.8613 33.625C67.4473 33.9531 68.5723 34.4277 70.2363 35.0488C72.5215 35.8809 74.0625 36.7188 74.8594 37.5625C75.668 38.4062 76.0723 39.4668 76.0723 40.7441ZM83.7539 46H80.8359V26.7344H83.7539V46ZM80.5898 21.5137C80.5898 20.8457 80.7539 20.3594 81.082 20.0547C81.4102 19.7383 81.8203 19.5801 82.3125 19.5801C82.7812 19.5801 83.1855 19.7383 83.5254 20.0547C83.8652 20.3711 84.0352 20.8574 84.0352 21.5137C84.0352 22.1699 83.8652 22.6621 83.5254 22.9902C83.1855 23.3066 82.7812 23.4648 82.3125 23.4648C81.8203 23.4648 81.4102 23.3066 81.082 22.9902C80.7539 22.6621 80.5898 22.1699 80.5898 21.5137ZM96.1641 43.9434C96.6797 43.9434 97.1777 43.9082 97.6582 43.8379C98.1387 43.7559 98.5195 43.6738 98.8008 43.5918V45.8242C98.4844 45.9766 98.0156 46.0996 97.3945 46.1934C96.7852 46.2988 96.2344 46.3516 95.7422 46.3516C92.0156 46.3516 90.1523 44.3887 90.1523 40.4629V29.002H87.3926V27.5957L90.1523 26.3828L91.3828 22.2695H93.0703V26.7344H98.6602V29.002H93.0703V40.3398C93.0703 41.5 93.3457 42.3906 93.8965 43.0117C94.4473 43.6328 95.2031 43.9434 96.1641 43.9434Z" fill="#3A3A3A"/>
<path d="M153.875 41.125L167 35L173.125 21.875L160 28L153.875 41.125ZM163.5 33.25C163.004 33.25 162.589 33.082 162.254 32.746C161.918 32.4112 161.75 31.9958 161.75 31.5C161.75 31.0042 161.918 30.5882 162.254 30.2522C162.589 29.9174 163.004 29.75 163.5 29.75C163.996 29.75 164.412 29.9174 164.748 30.2522C165.083 30.5882 165.25 31.0042 165.25 31.5C165.25 31.9958 165.083 32.4112 164.748 32.746C164.412 33.082 163.996 33.25 163.5 33.25ZM163.5 49C161.079 49 158.804 48.5403 156.675 47.621C154.546 46.7028 152.694 45.4563 151.119 43.8813C149.544 42.3063 148.297 40.4542 147.379 38.325C146.46 36.1958 146 33.9208 146 31.5C146 29.0792 146.46 26.8042 147.379 24.675C148.297 22.5458 149.544 20.6938 151.119 19.1188C152.694 17.5438 154.546 16.2966 156.675 15.3772C158.804 14.4591 161.079 14 163.5 14C165.921 14 168.196 14.4591 170.325 15.3772C172.454 16.2966 174.306 17.5438 175.881 19.1188C177.456 20.6938 178.703 22.5458 179.621 24.675C180.54 26.8042 181 29.0792 181 31.5C181 33.9208 180.54 36.1958 179.621 38.325C178.703 40.4542 177.456 42.3063 175.881 43.8813C174.306 45.4563 172.454 46.7028 170.325 47.621C168.196 48.5403 165.921 49 163.5 49Z" fill="#3282AD"/>
</svg>
