<svg width="468" height="355" viewBox="0 0 468 355" fill="none" xmlns="http://www.w3.org/2000/svg">
<path d="M23.375 168H13.6875V130.375H1.28125V122.312H35.7812V130.375H23.375V168ZM74.3125 168H64.7812V147.594C64.7812 142.552 62.9062 140.031 59.1562 140.031C56.4896 140.031 54.5625 140.938 53.375 142.75C52.1875 144.562 51.5938 147.5 51.5938 151.562V168H42.0625V119.375H51.5938V129.281C51.5938 130.052 51.5208 131.865 51.375 134.719L51.1562 137.531H51.6562C53.7812 134.115 57.1562 132.406 61.7812 132.406C65.8854 132.406 69 133.51 71.125 135.719C73.25 137.927 74.3125 141.094 74.3125 145.219V168ZM98.5938 139.188C96.5729 139.188 94.9896 139.833 93.8438 141.125C92.6979 142.396 92.0417 144.208 91.875 146.562H105.25C105.208 144.208 104.594 142.396 103.406 141.125C102.219 139.833 100.615 139.188 98.5938 139.188ZM99.9375 168.625C94.3125 168.625 89.9167 167.073 86.75 163.969C83.5833 160.865 82 156.469 82 150.781C82 144.927 83.4583 140.406 86.375 137.219C89.3125 134.01 93.3646 132.406 98.5312 132.406C103.469 132.406 107.312 133.812 110.062 136.625C112.812 139.438 114.188 143.323 114.188 148.281V152.906H91.6562C91.7604 155.615 92.5625 157.729 94.0625 159.25C95.5625 160.771 97.6667 161.531 100.375 161.531C102.479 161.531 104.469 161.312 106.344 160.875C108.219 160.438 110.177 159.74 112.219 158.781V166.156C110.552 166.99 108.771 167.604 106.875 168C104.979 168.417 102.667 168.625 99.9375 168.625ZM165.625 168H139.312V122.312H165.625V130.25H149V140.281H164.469V148.219H149V160H165.625V168ZM181.594 150.156L170.344 133.062H181.156L187.938 144.188L194.781 133.062H205.594L194.219 150.156L206.125 168H195.281L187.938 156.031L180.562 168H169.75L181.594 150.156ZM219.031 150.469C219.031 153.927 219.594 156.542 220.719 158.312C221.865 160.083 223.719 160.969 226.281 160.969C228.823 160.969 230.646 160.094 231.75 158.344C232.875 156.573 233.438 153.948 233.438 150.469C233.438 147.01 232.875 144.417 231.75 142.688C230.625 140.958 228.781 140.094 226.219 140.094C223.677 140.094 221.844 140.958 220.719 142.688C219.594 144.396 219.031 146.99 219.031 150.469ZM243.188 150.469C243.188 156.156 241.688 160.604 238.688 163.812C235.688 167.021 231.51 168.625 226.156 168.625C222.802 168.625 219.844 167.896 217.281 166.438C214.719 164.958 212.75 162.844 211.375 160.094C210 157.344 209.312 154.135 209.312 150.469C209.312 144.76 210.802 140.323 213.781 137.156C216.76 133.99 220.948 132.406 226.344 132.406C229.698 132.406 232.656 133.135 235.219 134.594C237.781 136.052 239.75 138.146 241.125 140.875C242.5 143.604 243.188 146.802 243.188 150.469ZM265.781 161.031C267.448 161.031 269.448 160.667 271.781 159.938V167.031C269.406 168.094 266.49 168.625 263.031 168.625C259.219 168.625 256.438 167.667 254.688 165.75C252.958 163.812 252.094 160.917 252.094 157.062V140.219H247.531V136.188L252.781 133L255.531 125.625H261.625V133.062H271.406V140.219H261.625V157.062C261.625 158.417 262 159.417 262.75 160.062C263.521 160.708 264.531 161.031 265.781 161.031ZM278.469 124.031C278.469 120.927 280.198 119.375 283.656 119.375C287.115 119.375 288.844 120.927 288.844 124.031C288.844 125.51 288.406 126.667 287.531 127.5C286.677 128.312 285.385 128.719 283.656 128.719C280.198 128.719 278.469 127.156 278.469 124.031ZM288.406 168H278.875V133.062H288.406V168ZM312.625 168.625C301.75 168.625 296.312 162.656 296.312 150.719C296.312 144.781 297.792 140.25 300.75 137.125C303.708 133.979 307.948 132.406 313.469 132.406C317.51 132.406 321.135 133.198 324.344 134.781L321.531 142.156C320.031 141.552 318.635 141.062 317.344 140.688C316.052 140.292 314.76 140.094 313.469 140.094C308.51 140.094 306.031 143.615 306.031 150.656C306.031 157.49 308.51 160.906 313.469 160.906C315.302 160.906 317 160.667 318.562 160.188C320.125 159.688 321.688 158.917 323.25 157.875V166.031C321.708 167.01 320.146 167.688 318.562 168.062C317 168.438 315.021 168.625 312.625 168.625ZM5.75 348V302.312H15.4375V348H5.75ZM50.5625 337.625C50.5625 341.208 49.3125 343.938 46.8125 345.812C44.3333 347.688 40.6146 348.625 35.6562 348.625C33.1146 348.625 30.9479 348.448 29.1562 348.094C27.3646 347.76 25.6875 347.26 24.125 346.594V338.719C25.8958 339.552 27.8854 340.25 30.0938 340.812C32.3229 341.375 34.2812 341.656 35.9688 341.656C39.4271 341.656 41.1562 340.656 41.1562 338.656C41.1562 337.906 40.9271 337.302 40.4688 336.844C40.0104 336.365 39.2188 335.833 38.0938 335.25C36.9688 334.646 35.4688 333.948 33.5938 333.156C30.9062 332.031 28.9271 330.99 27.6562 330.031C26.4062 329.073 25.4896 327.979 24.9062 326.75C24.3438 325.5 24.0625 323.969 24.0625 322.156C24.0625 319.052 25.2604 316.656 27.6562 314.969C30.0729 313.26 33.4896 312.406 37.9062 312.406C42.1146 312.406 46.2083 313.323 50.1875 315.156L47.3125 322.031C45.5625 321.281 43.9271 320.667 42.4062 320.188C40.8854 319.708 39.3333 319.469 37.75 319.469C34.9375 319.469 33.5312 320.229 33.5312 321.75C33.5312 322.604 33.9792 323.344 34.875 323.969C35.7917 324.594 37.7812 325.521 40.8438 326.75C43.5729 327.854 45.5729 328.885 46.8438 329.844C48.1146 330.802 49.0521 331.906 49.6562 333.156C50.2604 334.406 50.5625 335.896 50.5625 337.625ZM67.5312 348H58V299.375H67.5312V348ZM99.75 348L97.9062 343.25H97.6562C96.0521 345.271 94.3958 346.677 92.6875 347.469C91 348.24 88.7917 348.625 86.0625 348.625C82.7083 348.625 80.0625 347.667 78.125 345.75C76.2083 343.833 75.25 341.104 75.25 337.562C75.25 333.854 76.5417 331.125 79.125 329.375C81.7292 327.604 85.6458 326.625 90.875 326.438L96.9375 326.25V324.719C96.9375 321.177 95.125 319.406 91.5 319.406C88.7083 319.406 85.4271 320.25 81.6562 321.938L78.5 315.5C82.5208 313.396 86.9792 312.344 91.875 312.344C96.5625 312.344 100.156 313.365 102.656 315.406C105.156 317.448 106.406 320.552 106.406 324.719V348H99.75ZM96.9375 331.812L93.25 331.938C90.4792 332.021 88.4167 332.521 87.0625 333.438C85.7083 334.354 85.0312 335.75 85.0312 337.625C85.0312 340.312 86.5729 341.656 89.6562 341.656C91.8646 341.656 93.625 341.021 94.9375 339.75C96.2708 338.479 96.9375 336.792 96.9375 334.688V331.812ZM148.5 348H138.969V327.594C138.969 325.073 138.521 323.188 137.625 321.938C136.729 320.667 135.302 320.031 133.344 320.031C130.677 320.031 128.75 320.927 127.562 322.719C126.375 324.49 125.781 327.438 125.781 331.562V348H116.25V313.062H123.531L124.812 317.531H125.344C126.406 315.844 127.865 314.573 129.719 313.719C131.594 312.844 133.719 312.406 136.094 312.406C140.156 312.406 143.24 313.51 145.344 315.719C147.448 317.906 148.5 321.073 148.5 325.219V348ZM169.375 348.625C165.271 348.625 162.042 347.031 159.688 343.844C157.354 340.656 156.188 336.24 156.188 330.594C156.188 324.865 157.375 320.406 159.75 317.219C162.146 314.01 165.438 312.406 169.625 312.406C174.021 312.406 177.375 314.115 179.688 317.531H180C179.521 314.927 179.281 312.604 179.281 310.562V299.375H188.844V348H181.531L179.688 343.469H179.281C177.115 346.906 173.812 348.625 169.375 348.625ZM172.719 341.031C175.156 341.031 176.938 340.323 178.062 338.906C179.208 337.49 179.833 335.083 179.938 331.688V330.656C179.938 326.906 179.354 324.219 178.188 322.594C177.042 320.969 175.167 320.156 172.562 320.156C170.438 320.156 168.781 321.062 167.594 322.875C166.427 324.667 165.844 327.281 165.844 330.719C165.844 334.156 166.438 336.74 167.625 338.469C168.812 340.177 170.51 341.031 172.719 341.031ZM223.188 337.625C223.188 341.208 221.938 343.938 219.438 345.812C216.958 347.688 213.24 348.625 208.281 348.625C205.74 348.625 203.573 348.448 201.781 348.094C199.99 347.76 198.312 347.26 196.75 346.594V338.719C198.521 339.552 200.51 340.25 202.719 340.812C204.948 341.375 206.906 341.656 208.594 341.656C212.052 341.656 213.781 340.656 213.781 338.656C213.781 337.906 213.552 337.302 213.094 336.844C212.635 336.365 211.844 335.833 210.719 335.25C209.594 334.646 208.094 333.948 206.219 333.156C203.531 332.031 201.552 330.99 200.281 330.031C199.031 329.073 198.115 327.979 197.531 326.75C196.969 325.5 196.688 323.969 196.688 322.156C196.688 319.052 197.885 316.656 200.281 314.969C202.698 313.26 206.115 312.406 210.531 312.406C214.74 312.406 218.833 313.323 222.812 315.156L219.938 322.031C218.188 321.281 216.552 320.667 215.031 320.188C213.51 319.708 211.958 319.469 210.375 319.469C207.562 319.469 206.156 320.229 206.156 321.75C206.156 322.604 206.604 323.344 207.5 323.969C208.417 324.594 210.406 325.521 213.469 326.75C216.198 327.854 218.198 328.885 219.469 329.844C220.74 330.802 221.677 331.906 222.281 333.156C222.885 334.406 223.188 335.896 223.188 337.625Z" fill="#3A3A3A"/>
<path d="M5.75 258V212.312H15.4375V250H33.9688V258H5.75ZM63.375 258L61.5312 253.25H61.2812C59.6771 255.271 58.0208 256.677 56.3125 257.469C54.625 258.24 52.4167 258.625 49.6875 258.625C46.3333 258.625 43.6875 257.667 41.75 255.75C39.8333 253.833 38.875 251.104 38.875 247.562C38.875 243.854 40.1667 241.125 42.75 239.375C45.3542 237.604 49.2708 236.625 54.5 236.438L60.5625 236.25V234.719C60.5625 231.177 58.75 229.406 55.125 229.406C52.3333 229.406 49.0521 230.25 45.2812 231.938L42.125 225.5C46.1458 223.396 50.6042 222.344 55.5 222.344C60.1875 222.344 63.7812 223.365 66.2812 225.406C68.7812 227.448 70.0312 230.552 70.0312 234.719V258H63.375ZM60.5625 241.812L56.875 241.938C54.1042 242.021 52.0417 242.521 50.6875 243.438C49.3333 244.354 48.6562 245.75 48.6562 247.625C48.6562 250.312 50.1979 251.656 53.2812 251.656C55.4896 251.656 57.25 251.021 58.5625 249.75C59.8958 248.479 60.5625 246.792 60.5625 244.688V241.812ZM89.0312 239L93.1875 233.688L102.969 223.062H113.719L99.8438 238.219L114.562 258H103.562L93.5 243.844L89.4062 247.125V258H79.875V209.375H89.4062V231.062L88.9062 239H89.0312ZM143.938 247.625C143.938 251.208 142.688 253.938 140.188 255.812C137.708 257.688 133.99 258.625 129.031 258.625C126.49 258.625 124.323 258.448 122.531 258.094C120.74 257.76 119.062 257.26 117.5 256.594V248.719C119.271 249.552 121.26 250.25 123.469 250.812C125.698 251.375 127.656 251.656 129.344 251.656C132.802 251.656 134.531 250.656 134.531 248.656C134.531 247.906 134.302 247.302 133.844 246.844C133.385 246.365 132.594 245.833 131.469 245.25C130.344 244.646 128.844 243.948 126.969 243.156C124.281 242.031 122.302 240.99 121.031 240.031C119.781 239.073 118.865 237.979 118.281 236.75C117.719 235.5 117.438 233.969 117.438 232.156C117.438 229.052 118.635 226.656 121.031 224.969C123.448 223.26 126.865 222.406 131.281 222.406C135.49 222.406 139.583 223.323 143.562 225.156L140.688 232.031C138.938 231.281 137.302 230.667 135.781 230.188C134.26 229.708 132.708 229.469 131.125 229.469C128.312 229.469 126.906 230.229 126.906 231.75C126.906 232.604 127.354 233.344 128.25 233.969C129.167 234.594 131.156 235.521 134.219 236.75C136.948 237.854 138.948 238.885 140.219 239.844C141.49 240.802 142.427 241.906 143.031 243.156C143.635 244.406 143.938 245.896 143.938 247.625ZM183.625 258H174.094V237.594C174.094 232.552 172.219 230.031 168.469 230.031C165.802 230.031 163.875 230.938 162.688 232.75C161.5 234.562 160.906 237.5 160.906 241.562V258H151.375V209.375H160.906V219.281C160.906 220.052 160.833 221.865 160.688 224.719L160.469 227.531H160.969C163.094 224.115 166.469 222.406 171.094 222.406C175.198 222.406 178.312 223.51 180.438 225.719C182.562 227.927 183.625 231.094 183.625 235.219V258ZM215.625 258L213.781 253.25H213.531C211.927 255.271 210.271 256.677 208.562 257.469C206.875 258.24 204.667 258.625 201.938 258.625C198.583 258.625 195.938 257.667 194 255.75C192.083 253.833 191.125 251.104 191.125 247.562C191.125 243.854 192.417 241.125 195 239.375C197.604 237.604 201.521 236.625 206.75 236.438L212.812 236.25V234.719C212.812 231.177 211 229.406 207.375 229.406C204.583 229.406 201.302 230.25 197.531 231.938L194.375 225.5C198.396 223.396 202.854 222.344 207.75 222.344C212.438 222.344 216.031 223.365 218.531 225.406C221.031 227.448 222.281 230.552 222.281 234.719V258H215.625ZM212.812 241.812L209.125 241.938C206.354 242.021 204.292 242.521 202.938 243.438C201.583 244.354 200.906 245.75 200.906 247.625C200.906 250.312 202.448 251.656 205.531 251.656C207.74 251.656 209.5 251.021 210.812 249.75C212.146 248.479 212.812 246.792 212.812 244.688V241.812ZM243.188 258.625C239.083 258.625 235.854 257.031 233.5 253.844C231.167 250.656 230 246.24 230 240.594C230 234.865 231.188 230.406 233.562 227.219C235.958 224.01 239.25 222.406 243.438 222.406C247.833 222.406 251.188 224.115 253.5 227.531H253.812C253.333 224.927 253.094 222.604 253.094 220.562V209.375H262.656V258H255.344L253.5 253.469H253.094C250.927 256.906 247.625 258.625 243.188 258.625ZM246.531 251.031C248.969 251.031 250.75 250.323 251.875 248.906C253.021 247.49 253.646 245.083 253.75 241.688V240.656C253.75 236.906 253.167 234.219 252 232.594C250.854 230.969 248.979 230.156 246.375 230.156C244.25 230.156 242.594 231.062 241.406 232.875C240.24 234.667 239.656 237.281 239.656 240.719C239.656 244.156 240.25 246.74 241.438 248.469C242.625 250.177 244.323 251.031 246.531 251.031ZM301.344 258L298.656 245.781L295.031 230.344H294.812L288.438 258H278.188L268.25 223.062H277.75L281.781 238.531C282.427 241.302 283.083 245.125 283.75 250H283.938C284.021 248.417 284.385 245.906 285.031 242.469L285.531 239.812L289.844 223.062H300.344L304.438 239.812C304.521 240.271 304.646 240.948 304.812 241.844C305 242.74 305.177 243.698 305.344 244.719C305.51 245.719 305.656 246.708 305.781 247.688C305.927 248.646 306.01 249.417 306.031 250H306.219C306.406 248.5 306.74 246.448 307.219 243.844C307.698 241.219 308.042 239.448 308.25 238.531L312.438 223.062H321.781L311.719 258H301.344ZM341.906 229.188C339.885 229.188 338.302 229.833 337.156 231.125C336.01 232.396 335.354 234.208 335.188 236.562H348.562C348.521 234.208 347.906 232.396 346.719 231.125C345.531 229.833 343.927 229.188 341.906 229.188ZM343.25 258.625C337.625 258.625 333.229 257.073 330.062 253.969C326.896 250.865 325.312 246.469 325.312 240.781C325.312 234.927 326.771 230.406 329.688 227.219C332.625 224.01 336.677 222.406 341.844 222.406C346.781 222.406 350.625 223.812 353.375 226.625C356.125 229.438 357.5 233.323 357.5 238.281V242.906H334.969C335.073 245.615 335.875 247.729 337.375 249.25C338.875 250.771 340.979 251.531 343.688 251.531C345.792 251.531 347.781 251.312 349.656 250.875C351.531 250.438 353.49 249.74 355.531 248.781V256.156C353.865 256.99 352.083 257.604 350.188 258C348.292 258.417 345.979 258.625 343.25 258.625ZM379.719 229.188C377.698 229.188 376.115 229.833 374.969 231.125C373.823 232.396 373.167 234.208 373 236.562H386.375C386.333 234.208 385.719 232.396 384.531 231.125C383.344 229.833 381.74 229.188 379.719 229.188ZM381.062 258.625C375.438 258.625 371.042 257.073 367.875 253.969C364.708 250.865 363.125 246.469 363.125 240.781C363.125 234.927 364.583 230.406 367.5 227.219C370.438 224.01 374.49 222.406 379.656 222.406C384.594 222.406 388.438 223.812 391.188 226.625C393.938 229.438 395.312 233.323 395.312 238.281V242.906H372.781C372.885 245.615 373.688 247.729 375.188 249.25C376.688 250.771 378.792 251.531 381.5 251.531C383.604 251.531 385.594 251.312 387.469 250.875C389.344 250.438 391.302 249.74 393.344 248.781V256.156C391.677 256.99 389.896 257.604 388 258C386.104 258.417 383.792 258.625 381.062 258.625ZM422.25 258.625C418.146 258.625 414.927 257.135 412.594 254.156H412.094C412.427 257.073 412.594 258.76 412.594 259.219V273.375H403.062V223.062H410.812L412.156 227.594H412.594C414.823 224.135 418.125 222.406 422.5 222.406C426.625 222.406 429.854 224 432.188 227.188C434.521 230.375 435.688 234.802 435.688 240.469C435.688 244.198 435.135 247.438 434.031 250.188C432.948 252.938 431.396 255.031 429.375 256.469C427.354 257.906 424.979 258.625 422.25 258.625ZM419.438 230.031C417.083 230.031 415.365 230.76 414.281 232.219C413.198 233.656 412.635 236.042 412.594 239.375V240.406C412.594 244.156 413.146 246.844 414.25 248.469C415.375 250.094 417.146 250.906 419.562 250.906C423.833 250.906 425.969 247.385 425.969 240.344C425.969 236.906 425.438 234.333 424.375 232.625C423.333 230.896 421.688 230.031 419.438 230.031Z" fill="#3282AD"/>
<rect width="197" height="64" rx="32" fill="#D2F4FF"/>
<path d="M48.2109 20.3008H51.4277L42.1641 46H39.2109L30 20.3008H33.1641L39.0703 36.9297C39.75 38.8398 40.2891 40.6973 40.6875 42.502C41.1094 40.6035 41.6602 38.7109 42.3398 36.8242L48.2109 20.3008ZM57.457 46H54.5391V26.7344H57.457V46ZM54.293 21.5137C54.293 20.8457 54.457 20.3594 54.7852 20.0547C55.1133 19.7383 55.5234 19.5801 56.0156 19.5801C56.4844 19.5801 56.8887 19.7383 57.2285 20.0547C57.5684 20.3711 57.7383 20.8574 57.7383 21.5137C57.7383 22.1699 57.5684 22.6621 57.2285 22.9902C56.8887 23.3066 56.4844 23.4648 56.0156 23.4648C55.5234 23.4648 55.1133 23.3066 54.7852 22.9902C54.457 22.6621 54.293 22.1699 54.293 21.5137ZM76.0723 40.7441C76.0723 42.5371 75.4043 43.9199 74.0684 44.8926C72.7324 45.8652 70.8574 46.3516 68.4434 46.3516C65.8887 46.3516 63.8965 45.9473 62.4668 45.1387V42.4316C63.3926 42.9004 64.3828 43.2695 65.4375 43.5391C66.5039 43.8086 67.5293 43.9434 68.5137 43.9434C70.0371 43.9434 71.209 43.7031 72.0293 43.2227C72.8496 42.7305 73.2598 41.9863 73.2598 40.9902C73.2598 40.2402 72.9316 39.6016 72.2754 39.0742C71.6309 38.5352 70.3652 37.9023 68.4785 37.1758C66.6855 36.5078 65.4082 35.9277 64.6465 35.4355C63.8965 34.9316 63.334 34.3633 62.959 33.7305C62.5957 33.0977 62.4141 32.3418 62.4141 31.4629C62.4141 29.8926 63.0527 28.6562 64.3301 27.7539C65.6074 26.8398 67.3594 26.3828 69.5859 26.3828C71.6602 26.3828 73.6875 26.8047 75.668 27.6484L74.6309 30.0215C72.6973 29.2246 70.9453 28.8262 69.375 28.8262C67.9922 28.8262 66.9492 29.043 66.2461 29.4766C65.543 29.9102 65.1914 30.5078 65.1914 31.2695C65.1914 31.7852 65.3203 32.2246 65.5781 32.5879C65.8477 32.9512 66.2754 33.2969 66.8613 33.625C67.4473 33.9531 68.5723 34.4277 70.2363 35.0488C72.5215 35.8809 74.0625 36.7188 74.8594 37.5625C75.668 38.4062 76.0723 39.4668 76.0723 40.7441ZM83.7539 46H80.8359V26.7344H83.7539V46ZM80.5898 21.5137C80.5898 20.8457 80.7539 20.3594 81.082 20.0547C81.4102 19.7383 81.8203 19.5801 82.3125 19.5801C82.7812 19.5801 83.1855 19.7383 83.5254 20.0547C83.8652 20.3711 84.0352 20.8574 84.0352 21.5137C84.0352 22.1699 83.8652 22.6621 83.5254 22.9902C83.1855 23.3066 82.7812 23.4648 82.3125 23.4648C81.8203 23.4648 81.4102 23.3066 81.082 22.9902C80.7539 22.6621 80.5898 22.1699 80.5898 21.5137ZM96.1641 43.9434C96.6797 43.9434 97.1777 43.9082 97.6582 43.8379C98.1387 43.7559 98.5195 43.6738 98.8008 43.5918V45.8242C98.4844 45.9766 98.0156 46.0996 97.3945 46.1934C96.7852 46.2988 96.2344 46.3516 95.7422 46.3516C92.0156 46.3516 90.1523 44.3887 90.1523 40.4629V29.002H87.3926V27.5957L90.1523 26.3828L91.3828 22.2695H93.0703V26.7344H98.6602V29.002H93.0703V40.3398C93.0703 41.5 93.3457 42.3906 93.8965 43.0117C94.4473 43.6328 95.2031 43.9434 96.1641 43.9434Z" fill="#3A3A3A"/>
<path d="M153.875 41.125L167 35L173.125 21.875L160 28L153.875 41.125ZM163.5 33.25C163.004 33.25 162.589 33.082 162.254 32.746C161.918 32.4112 161.75 31.9958 161.75 31.5C161.75 31.0042 161.918 30.5882 162.254 30.2522C162.589 29.9174 163.004 29.75 163.5 29.75C163.996 29.75 164.412 29.9174 164.748 30.2522C165.083 30.5882 165.25 31.0042 165.25 31.5C165.25 31.9958 165.083 32.4112 164.748 32.746C164.412 33.082 163.996 33.25 163.5 33.25ZM163.5 49C161.079 49 158.804 48.5403 156.675 47.621C154.546 46.7028 152.694 45.4563 151.119 43.8813C149.544 42.3063 148.297 40.4542 147.379 38.325C146.46 36.1958 146 33.9208 146 31.5C146 29.0792 146.46 26.8042 147.379 24.675C148.297 22.5458 149.544 20.6938 151.119 19.1188C152.694 17.5438 154.546 16.2966 156.675 15.3772C158.804 14.4591 161.079 14 163.5 14C165.921 14 168.196 14.4591 170.325 15.3772C172.454 16.2966 174.306 17.5438 175.881 19.1188C177.456 20.6938 178.703 22.5458 179.621 24.675C180.54 26.8042 181 29.0792 181 31.5C181 33.9208 180.54 36.1958 179.621 38.325C178.703 40.4542 177.456 42.3063 175.881 43.8813C174.306 45.4563 172.454 46.7028 170.325 47.621C168.196 48.5403 165.921 49 163.5 49Z" fill="#3282AD"/>
</svg>
